<svg width="650" height="650" xmlns="http://www.w3.org/2000/svg" xmlns:xlink="http://www.w3.org/1999/xlink" xml:space="preserve" overflow="hidden"><defs><clipPath id="clip0"><rect x="1715" y="160" width="650" height="650"/></clipPath></defs><g clip-path="url(#clip0)" transform="translate(-1715 -160)"><path d="M1715 363.3C1715 251.021 1806.02 160 1918.3 160L2161.7 160C2273.98 160 2365 251.021 2365 363.3L2365 606.699C2365 718.979 2273.98 810 2161.7 810L1918.3 810C1806.02 810 1715 718.979 1715 606.699Z" fill-rule="evenodd"/><g><g><g><path d="M216 126 216 378" stroke="#FFFFFF" stroke-width="35.9999" stroke-linecap="round" stroke-linejoin="round" fill="none" transform="matrix(1 0 0 1 1824 269)"/><path d="M54 324C44.0589 324 36 315.941 36 306L36 72C36 62.0589 44.0589 54 54 54L144 54C183.764 54 216 86.2354 216 126 216 86.2354 248.236 54 288 54L378 54C387.941 54 396 62.0589 396 72L396 306C396 315.941 387.941 324 378 324L270 324C240.176 324 216 348.176 216 378 216 348.176 191.824 324 162 324Z" stroke="#FFFFFF" stroke-width="35.9999" stroke-linecap="round" stroke-linejoin="round" fill="none" transform="matrix(1 0 0 1 1824 269)"/></g></g></g></g></svg>