<svg width="1274" height="1182" xmlns="http://www.w3.org/2000/svg" xmlns:xlink="http://www.w3.org/1999/xlink" xml:space="preserve" overflow="hidden"><defs><clipPath id="clip0"><rect x="2479" y="668" width="1274" height="1182"/></clipPath></defs><g clip-path="url(#clip0)" transform="translate(-2479 -668)"><path d="M2479 1037.69C2479 833.518 2644.52 668 2848.69 668L3383.31 668C3587.48 668 3753 833.518 3753 1037.69L3753 1480.31C3753 1684.48 3587.48 1850 3383.31 1850L2848.69 1850C2644.52 1850 2479 1684.48 2479 1480.31Z" fill-rule="evenodd"/><g><g><g><path d="M421 245.583 421 736.75" stroke="#FFFFFF" stroke-width="70.1666" stroke-linecap="round" stroke-linejoin="round" fill="none" transform="matrix(1 0 0 1.00119 2695 837)"/><path d="M105.25 631.5C85.8742 631.5 70.1667 615.793 70.1667 596.417L70.1667 140.333C70.1667 120.957 85.8742 105.25 105.25 105.25L280.667 105.25C358.169 105.25 421 168.079 421 245.583 421 168.079 483.831 105.25 561.333 105.25L736.75 105.25C756.126 105.25 771.833 120.957 771.833 140.333L771.833 596.417C771.833 615.793 756.126 631.5 736.75 631.5L526.25 631.5C468.12 631.5 421 678.62 421 736.75 421 678.62 373.88 631.5 315.75 631.5Z" stroke="#FFFFFF" stroke-width="70.1666" stroke-linecap="round" stroke-linejoin="round" fill="none" transform="matrix(1 0 0 1.00119 2695 837)"/></g></g></g></g></svg>